<svg xmlns="http://www.w3.org/2000/svg" width="24" height="24" viewBox="0 0 24 24"><g transform="translate(0 -1)"><g transform="translate(0 1)"><path d="M0,0H24V24H0Z" fill="none"/></g><g transform="translate(0 1)"><path d="M4.39,2.03a2.748,2.748,0,0,1,1.67.26,2.842,2.842,0,0,1,1.3,1.33,3.048,3.048,0,0,1,.25.88h3.63a1.718,1.718,0,0,1,2.92-.88,1.671,1.671,0,0,1,.46.88h3.13a5.425,5.425,0,0,1,.9.04,3.969,3.969,0,0,1,2.29,1.2,3.894,3.894,0,0,1-2.16,6.5,9.366,9.366,0,0,1-1.5.06,1.718,1.718,0,0,1-1.69,1.41,1.753,1.753,0,0,1-1.08-.38,1.693,1.693,0,0,1-.61-1.03H10.09a1.71,1.71,0,0,1-.56.98,1.746,1.746,0,0,1-1.13.43,1.7,1.7,0,0,1-1.68-1.4H5.81a3.316,3.316,0,0,0-2.39,1.15,3.279,3.279,0,0,0,2.53,5.41H9.37a1.743,1.743,0,0,1,.5-.92,1.665,1.665,0,0,1,1.23-.48,1.685,1.685,0,0,1,1.03.37,1.756,1.756,0,0,1,.62,1.03h3.63a2.824,2.824,0,0,1,4.91-1.56,2.824,2.824,0,0,1,.7,1.56,2.767,2.767,0,0,1-.31,1.62,2.822,2.822,0,0,1-2.07,1.47,2.76,2.76,0,0,1-1.67-.26,2.822,2.822,0,0,1-1.26-1.25,2.963,2.963,0,0,1-.29-.96H12.76a1.771,1.771,0,0,1-.53.95,1.671,1.671,0,0,1-1.12.45,1.637,1.637,0,0,1-1-.3,1.736,1.736,0,0,1-.73-1.11H6.29a6.1,6.1,0,0,1-.74-.02A3.906,3.906,0,0,1,2.6,13.49a3.938,3.938,0,0,1,2.24-1.68,7.206,7.206,0,0,1,1.41-.13l.47-.01a1.865,1.865,0,0,1,.09-.32,1.771,1.771,0,0,1,.6-.78,1.725,1.725,0,0,1,2.69,1.09h3.8a1.708,1.708,0,0,1,.6-1.01,1.731,1.731,0,0,1,1.09-.39,1.692,1.692,0,0,1,1.1.4,1.751,1.751,0,0,1,.59,1h.91a3.279,3.279,0,0,0,1.8-5.95,3.209,3.209,0,0,0-1.94-.6H14.63a1.787,1.787,0,0,1-.51.93,1.673,1.673,0,0,1-1.22.47,1.726,1.726,0,0,1-1.66-1.4H7.6A2.8,2.8,0,0,1,2.46,6.35a2.729,2.729,0,0,1-.44-1.84A2.829,2.829,0,0,1,4.39,2.03m.15.62a2.183,2.183,0,0,0-1.57.99,2.115,2.115,0,0,0-.31,1.53,2.18,2.18,0,0,0,4.3.02A2.109,2.109,0,0,0,6.84,4,2.186,2.186,0,0,0,5.78,2.86a2.054,2.054,0,0,0-1.24-.21m8.16,1.1a1.09,1.09,0,0,0,.32,2.15,1.075,1.075,0,0,0,.89-.6,1.093,1.093,0,0,0,.1-.71,1.121,1.121,0,0,0-.49-.71,1.166,1.166,0,0,0-.82-.13M8.18,10.93a1.088,1.088,0,0,0-.85.88,1.114,1.114,0,0,0,.39,1.04,1.091,1.091,0,0,0,.85.23,1.12,1.12,0,0,0,.76-.51,1.065,1.065,0,0,0,.15-.74,1.1,1.1,0,0,0-.44-.72,1.128,1.128,0,0,0-.86-.18m7.3-.02a1.1,1.1,0,0,0-.97.94,1.072,1.072,0,0,0,.41,1,1.108,1.108,0,0,0,.86.22,1.09,1.09,0,0,0,.68-.42,1.092,1.092,0,0,0-.25-1.55,1.089,1.089,0,0,0-.73-.19m3.36,6.12a2.28,2.28,0,0,0-.8.3,2.183,2.183,0,1,0,2.87,3.2,2.162,2.162,0,0,0,.46-1.44,2.179,2.179,0,0,0-2.53-2.06m-8.01,1.09a1.094,1.094,0,0,0-.86,1.11,1.076,1.076,0,0,0,.5.87,1.047,1.047,0,0,0,.86.14,1.079,1.079,0,0,0,.67-.51,1.085,1.085,0,0,0-.44-1.51A1.019,1.019,0,0,0,10.83,18.12Z" fill="#6a7284" stroke="#6a7284" stroke-width="1"/></g><g transform="translate(14.73 15.54)"><path d="M4.662,4.3a.772.772,0,0,0-.7-.443.783.783,0,1,0,0,1.566.779.779,0,0,0,.7-.451h.3v.451h.672V4.975h.221V4.3Zm.975.451H5.416V5.2h-.23V4.753H4.514l-.033.074A.556.556,0,0,1,3.4,4.647a.563.563,0,0,1,.557-.557.549.549,0,0,1,.525.369l.025.074H5.629v.221Z" fill="#6a7284"/><path d="M4.076,4.4a.356.356,0,1,0,.356.356A.352.352,0,0,0,4.076,4.4Zm0,.478A.122.122,0,1,1,4.2,4.756.119.119,0,0,1,4.076,4.878Z" transform="translate(-0.11 -0.117)" fill="#6a7284"/></g><g transform="translate(0.33 1.141)"><path d="M4.662,4.3a.772.772,0,0,0-.7-.443.783.783,0,1,0,0,1.566.779.779,0,0,0,.7-.451h.3v.451h.672V4.975h.221V4.3Zm.975.451H5.416V5.2h-.23V4.753H4.514l-.033.074A.556.556,0,0,1,3.4,4.647a.563.563,0,0,1,.557-.557.549.549,0,0,1,.525.369l.025.074H5.629v.221Z" fill="#6a7284"/><path d="M4.076,4.4a.356.356,0,1,0,.356.356A.352.352,0,0,0,4.076,4.4Zm0,.478A.122.122,0,1,1,4.2,4.756.119.119,0,0,1,4.076,4.878Z" transform="translate(-0.11 -0.117)" fill="#6a7284"/></g></g></svg>