<svg xmlns="http://www.w3.org/2000/svg" width="24" height="24" viewBox="0 0 24 24"><rect width="24" height="24" fill="none"/><path d="M21.67,18.17l-5.3-5.3h-.99l-2.54,2.54v.99l5.3,5.3a1,1,0,0,0,1.41,0l2.12-2.12A1,1,0,0,0,21.67,18.17Zm-2.83,1.42L14.6,15.35l.71-.71,4.24,4.24Z" fill="#6a7284"/><path d="M17.34,10.19l1.41-1.41,2.12,2.12a3,3,0,0,0,0-4.24L17.33,3.12,15.92,4.53V1.71L15.22,1,11.68,4.54l.71.71h2.83L13.81,6.66l1.06,1.06-2.89,2.89L7.85,6.48V5.06L4.83,2.04,2,4.87,5.03,7.9H6.44l4.13,4.13-.85.85H7.6l-5.3,5.3a1,1,0,0,0,0,1.41l2.12,2.12a1,1,0,0,0,1.41,0l5.3-5.3V14.29l5.15-5.15ZM9.36,15.34,5.12,19.58l-.71-.71,4.24-4.24h0l.71.71Z" fill="#6a7284"/></svg>