<svg xmlns="http://www.w3.org/2000/svg" width="24" height="24" viewBox="0 0 24 24"><path d="M0,0H24V24H0Z" fill="none"/><path d="M8.689,14.463a1.343,1.343,0,1,0,1.343,1.343A1.345,1.345,0,0,0,8.689,14.463Zm0,2.19a.848.848,0,1,1,.848-.848A.846.846,0,0,1,8.689,16.654Z" fill="#6a7284"/><circle cx="0.47" cy="0.47" r="0.47" transform="translate(8.219 15.337)" fill="#6a7284"/><path d="M14.1,14.463a1.343,1.343,0,1,0,1.343,1.343A1.345,1.345,0,0,0,14.1,14.463Zm0,2.19a.848.848,0,1,1,.848-.848A.846.846,0,0,1,14.1,16.654Z" fill="#6a7284"/><circle cx="0.47" cy="0.47" r="0.47" transform="translate(13.626 15.337)" fill="#6a7284"/><path d="M19.876,8.872l-1.685,3.641H14.1v.96h4.7l1.69-3.641H22v-.96Z" fill="#6a7284"/><path d="M3.777,12.5h.363l.209-.225h.424a.046.046,0,1,0,0-.092H4.308l-.2.225H3.777a.046.046,0,1,0,0,.092Z" fill="#6a7284"/><path d="M3.317,11.191a.475.475,0,0,0-.468-.47l0-.041,0,.041a.47.47,0,1,0,.472.47Zm-.47.449a.454.454,0,0,1,0-.909l-.018.4a.066.066,0,0,0-.046.062.066.066,0,0,0,.04.061l0,.1h.061l0-.1a.066.066,0,0,0,.04-.061.066.066,0,0,0-.046-.062l-.018-.4a.454.454,0,0,1,0,.909Z" fill="#6a7284"/><path d="M2.311,11.191a.536.536,0,1,1,.781.475l-.01.005.066.133.02-.005a.685.685,0,1,0-.8-1.089l-.008.008h0a.686.686,0,0,0-.082.1l0,0-.008.013,0,0a.68.68,0,0,0-.054.108h0l-.005.014h0a.678.678,0,0,0-.03.112v0h0a.685.685,0,0,0-.011.118.678.678,0,0,0,.368.608l.01.005.066-.133-.01-.005A.535.535,0,0,1,2.311,11.191Zm-.015.23.005.01-.062.027,0-.01ZM2.2,11.351l0-.016.066-.017.005.015Zm.149.171.01.01-.058.04L2.3,11.561Zm.071.082.01.01-.05.05-.01-.01ZM2.2,11.061a.657.657,0,0,1,.028-.1l.06.023.005-.014-.06-.023a.66.66,0,0,1,.052-.1l.052.033.008-.013L2.29,10.83a.664.664,0,0,1,.08-.1l.046.046.011-.011-.046-.046a.664.664,0,0,1,.075-.063l.042.059.012-.009-.042-.059a.661.661,0,0,1,.085-.05l.028.059.014-.007-.028-.059a.658.658,0,0,1,.127-.044l.014.063.015,0-.014-.063a.67.67,0,0,1,.129-.014v.066h.015v-.066a.659.659,0,0,1,.13.014l-.015.068.015,0L3,10.545a.658.658,0,0,1,.128.044l-.03.063.014.007.03-.063a.667.667,0,0,1,.084.049l-.041.058.012.009.041-.058a.672.672,0,0,1,.075.062l-.051.051.011.011.051-.051a.67.67,0,0,1,.085.107l-.06.038.008.013.06-.038a.66.66,0,0,1,.05.1l-.062.024.005.014.062-.024a.653.653,0,0,1,.029.1l-.07.013,0,.015.069-.013a.66.66,0,0,1,.011.109H3.44V11.2h.071a.645.645,0,0,1-.017.142l-.07-.016,0,.015.069.016a.647.647,0,0,1-.031.092L3.4,11.419l-.006.014.061.026a.661.661,0,0,1-.062.108l-.055-.038-.009.013.054.037a.675.675,0,0,1-.065.075L3.265,11.6l-.011.011.052.052a.7.7,0,0,1-.147.108l-.051-.1a.565.565,0,0,0,.291-.49.551.551,0,1,0-1.1,0s0,0,0,.005H2.184a.67.67,0,0,1,.01-.115l.065.012,0-.015Z" fill="#6a7284"/><rect width="1.149" height="0.204" transform="translate(14.969 7.182)" fill="#6a7284"/><path d="M3.026,15.883V14.04h.117V13.3h.28a.234.234,0,0,0,.231.194H4.18a.234.234,0,0,0,.231-.194h.684a2.8,2.8,0,0,0,2.1,2.42,1.5,1.5,0,0,1,3,.087h2.4a1.5,1.5,0,0,1,3-.02,2.8,2.8,0,0,0,2.4-2.17H13.953V12.37H18a2.807,2.807,0,0,0-2.027-2.08V9.638h.271a.5.5,0,0,0,.5-.5V7.928a.5.5,0,0,0-.5-.5H13a.5.5,0,0,0-.5.5v1.21a.5.5,0,0,0,.5.5H13.2V10.2H9.489a1.281,1.281,0,0,0-.037-.261l.537-.892.262.158a.142.142,0,0,0,.143-.235l-.263-.158.056-.092.264.159a.142.142,0,0,0,.143-.235l-.265-.159.054-.09.262.157a.142.142,0,0,0,.143-.235l-.263-.158.056-.092.263.158a.142.142,0,0,0,.143-.235l-.265-.159.056-.093.265.16a.142.142,0,0,0,.143-.235l-.266-.16.056-.094.261.157a.142.142,0,0,0,.143-.235L9.536,6.222a.135.135,0,0,0-.163.061.124.124,0,0,0,.02.174l.261.157L9.6,6.708l-.255-.154a.127.127,0,0,0-.163.056.124.124,0,0,0,.02.174l.258.156-.058.1-.257-.155A.142.142,0,0,0,9,7.116l.258.155L9.2,7.363l-.259-.156a.142.142,0,0,0-.143.235l.26.156-.054.09L8.75,7.535a.142.142,0,0,0-.143.235l.258.155-.056.092-.259-.155a.129.129,0,0,0-.163.061.124.124,0,0,0,.02.174l.26.156-.432.718H8.2l-.43-.714L8.035,8.1a.124.124,0,0,0,.02-.174.129.129,0,0,0-.163-.061l-.264.158-.054-.09.267-.16A.142.142,0,0,0,7.7,7.535l-.266.16L7.378,7.6l.269-.162a.124.124,0,0,0,.02-.174A.132.132,0,0,0,7.5,7.208l-.264.159L7.18,7.274l.263-.158A.142.142,0,0,0,7.3,6.881l-.262.158-.057-.1.263-.159a.124.124,0,0,0,.02-.174.119.119,0,0,0-.158-.056l-.264.159-.058-.1.266-.16a.124.124,0,0,0,.02-.174.135.135,0,0,0-.163-.061L5.064,7.33a.142.142,0,0,0,.143.235l.256-.154.058.1-.257.155a.142.142,0,0,0,.143.235l.256-.155.055.091-.26.156a.142.142,0,0,0,.143.235l.258-.155.057.094-.254.153a.142.142,0,0,0,.143.235L6.057,8.4l.054.09-.256.154A.142.142,0,0,0,6,8.878l.255-.153.054.09-.258.155a.142.142,0,0,0,.143.235l.257-.155.522.867a1.283,1.283,0,0,0-.044.334c0,.039,0,.077.005.114a2.807,2.807,0,0,0-1.839,2.352H4.41a.239.239,0,0,0-.229-.194H3.654a.234.234,0,0,0-.231.194h-.28v-.311H3.057v-.031a.044.044,0,0,0-.041-.041H2.975v-.071h.046a.044.044,0,0,0,.041-.041V12.01a.848.848,0,1,0-.439,0v.215a.044.044,0,0,0,.041.041H2.7v.071H2.659a.044.044,0,0,0-.041.041v.031H2.551V14.04h.128v1.843a1.908,1.908,0,0,0,1.9,1.9H19.661V17.44H4.584A1.56,1.56,0,0,1,3.026,15.883Zm-.924-4.7a.745.745,0,1,1,.745.745A.746.746,0,0,1,2.1,11.185Z" fill="#6a7284"/></svg>