<svg xmlns="http://www.w3.org/2000/svg" width="24" height="24" viewBox="0 0 24 24"><g transform="translate(-4)"><g transform="translate(4)"><rect width="24" height="24" fill="none"/></g><g transform="translate(6.039 1.999)"><g transform="translate(0)"><path d="M12.544,9.2V10.41c-1,.671-2.005,1.343-2.883,1.88v1.343H8.408V12.29a17.048,17.048,0,0,1-2.632-1.477c-.125-.134-.251-.269-.376-.269V4.1h7.144Z" transform="translate(-3.708 -4.1)" fill="#6a7284"/><path d="M20.812,10.971c-.627.4-1.128.671-1.755,1.074a24.405,24.405,0,0,1-2.507,1.477.714.714,0,0,1-.251-.537c1.379-.94,2.883-1.745,4.261-2.685A.815.815,0,0,0,20.812,10.971Z" transform="translate(-0.947 -1.976)" fill="#6a7284"/><path d="M14.891,15.662h-.877v-.269H10.5a.986.986,0,0,0-.752.94A4.218,4.218,0,0,0,9.5,17.676a4.077,4.077,0,0,0,.251,2.148,2.435,2.435,0,0,1,.125.94,1.368,1.368,0,0,1-1.253.806H4.99a.979.979,0,0,1-.877-.94c0-.134.125-.269.251-.537.125-.4.376-.94.5-1.343A8.326,8.326,0,0,1,5.241,16.2c.125-.269,0-.537-.251-.806a1.778,1.778,0,0,1-.752-.94,1.82,1.82,0,0,1,0-1.611,1.957,1.957,0,0,1,1.379-1.074h8.4V11.5h.877Z" transform="translate(-4.05 -1.565)" fill="#6a7284"/><path d="M14.3,12.371c.5.269,1.128.537,1.629.806v.94a8.765,8.765,0,0,1-1.755.537v.537H13.3V11.7h.877C14.3,11.969,14.177,12.1,14.3,12.371Z" transform="translate(-1.707 -1.497)" fill="#6a7284"/><path d="M20.937,13.637H16.3V13.1h4.637Z" transform="translate(-0.947 -1.017)" fill="#6a7284"/><path d="M20.812,16.082c-.125.134-.125.4-.251.537l-1.5-.806c-.877-.537-1.88-.94-2.757-1.477.125-.134.125-.4.251-.537.125,0,.251.134.376.269A26.811,26.811,0,0,1,20.812,16.082Z" transform="translate(-0.947 -0.777)" fill="#6a7284"/><path d="M9.677,17.385H8.8c.251-.94.376-1.745.627-2.685H9.8A2,2,0,0,1,9.677,17.385Z" transform="translate(-2.847 -0.469)" fill="#6a7284"/></g></g></g></svg>