<svg xmlns="http://www.w3.org/2000/svg" width="24" height="24" viewBox="0 0 24 24"><rect width="24" height="24" fill="none"/><g transform="translate(3 3)"><path d="M19,3H5A2.006,2.006,0,0,0,3,5V19a2.006,2.006,0,0,0,2,2H19a2.006,2.006,0,0,0,2-2V5A2.006,2.006,0,0,0,19,3Zm0,16H5V5H19Z" transform="translate(-3 -3)" fill="#6a7284"/><rect width="2" height="5" transform="translate(4 9)" fill="#6a7284"/><rect width="2" height="10" transform="translate(12 4)" fill="#6a7284"/><rect width="2" height="3" transform="translate(8 11)" fill="#6a7284"/><rect width="2" height="2" transform="translate(8 7)" fill="#6a7284"/></g></svg>