<svg xmlns="http://www.w3.org/2000/svg" xmlns:xlink="http://www.w3.org/1999/xlink" width="42" height="54" viewBox="0 0 42 54"><defs><filter id="a" x="0" y="0" width="42" height="54" filterUnits="userSpaceOnUse"><feOffset dy="3" input="SourceAlpha"/><feGaussianBlur stdDeviation="3" result="b"/><feFlood flood-opacity="0.161"/><feComposite operator="in" in2="b"/><feComposite in="SourceGraphic"/></filter></defs><g transform="translate(-72 -755)"><g transform="matrix(1, 0, 0, 1, 72, 755)" filter="url(#a)"><path d="M0,0H6A18,18,0,0,1,24,18v0A18,18,0,0,1,6,36H0a0,0,0,0,1,0,0V0A0,0,0,0,1,0,0Z" transform="translate(9 6)" fill="#d3d3d3"/></g><g transform="translate(81 791) rotate(-90)"><path d="M24,24H0V0H24Z" fill="none" opacity="0.87"/><path d="M10.59,0,6,4.58,1.41,0,0,1.41l6,6,6-6Z" transform="translate(6 8.59)" fill="#6a7284"/></g></g></svg>