<svg xmlns="http://www.w3.org/2000/svg" width="24" height="24" viewBox="0 0 24 24"><path d="M0,0H24V24H0Z" fill="none"/><path d="M22.1,19.7a4.713,4.713,0,0,0-2.6-3.9,2.367,2.367,0,0,0,1.1-1.9,2.2,2.2,0,0,0-4.4,0,2.121,2.121,0,0,0,1.2,1.9,4.708,4.708,0,0,0-1.5,1.3A6.626,6.626,0,0,1,17,20.7a.908.908,0,0,1-.3.7H22C22.3,21.3,22.2,19.9,22.1,19.7Z" fill="#6a7284"/><path d="M16.3,19.3a5.846,5.846,0,0,0-2.8-3.7,2.79,2.79,0,0,0,1.2-2.3,2.7,2.7,0,1,0-5.4,0,2.935,2.935,0,0,0,1.2,2.3c-.1.1-.2.1-.4.2a5.886,5.886,0,0,0-2.6,4.5v.6c0,.2,0,.3.2.4h8.7a1.072,1.072,0,0,0,.2-.6C16.5,20.3,16.4,19.8,16.3,19.3Z" fill="#6a7284"/><path d="M8.1,17a5.088,5.088,0,0,0-1.6-1.3,2.163,2.163,0,0,0-1-4.1,2.22,2.22,0,0,0-2.2,2.2,2.121,2.121,0,0,0,1.2,1.9h0A4.88,4.88,0,0,0,2,19.9a7.083,7.083,0,0,0,.1,1.5H7.5a.793.793,0,0,1-.5-.7A6.959,6.959,0,0,1,8.1,17Z" fill="#6a7284"/><path d="M7.8,15H9.1a4.179,4.179,0,0,1-.4-1H8.1A1.929,1.929,0,0,1,7.8,15Z" fill="#6a7284"/><path d="M2.8,15H3a2.663,2.663,0,0,1-.3-1.2V4.3a.9.9,0,0,1,.9-.9H20.3a.9.9,0,0,1,.9.9V13c0,.2-.1.3-.1.5v.3a2.663,2.663,0,0,1-.3,1.2h.3a.945.945,0,0,0,1-1V3.6a.945.945,0,0,0-1-1H2.8a.945.945,0,0,0-1,1V14A1.075,1.075,0,0,0,2.8,15Z" fill="#6a7284"/><path d="M14.9,15H16a3.81,3.81,0,0,1-.3-1h-.5A1.929,1.929,0,0,1,14.9,15Z" fill="#6a7284"/></svg>